<svg xmlns="http://www.w3.org/2000/svg" viewBox="0 0 108 32" role="img" aria-label="HubSpot">
  <path fill="#FF7A59" d="M24.2 7.9V5.1a2.2 2.2 0 0 1 1.3-2V3a2.2 2.2 0 0 0-4.4 0v.1a2.2 2.2 0 0 1 1.3 2v2.8a6.2 6.2 0 0 0-3 1.3l.01-.01-7.8-6.1A2.5 2.5 0 1 0 5.6 4.7l-.01.01 7.7 6a6.2 6.2 0 0 0-1 3.4c0 1.3.4 2.6 1.1 3.6l-.01-.02-2.3 2.3a2 2 0 0 0-.6-.1h-.01a2 2 0 1 0 2 2 2 2 0 0 0-.1-.6l.01.01 2.3-2.3a6.2 6.2 0 0 0 4.8-11.1l-.04-.01zm-1 9.4a3.2 3.2 0 1 1 3.2-3.2 3.2 3.2 0 0 1-3.2 3.2z"/>
  <path fill="#33475B" d="M36.5 10.2h3.1v1.5c.7-1.1 1.9-1.8 3.5-1.8 2.8 0 4.4 1.8 4.4 4.9v8.5h-3.2v-7.9c0-2-.9-3-2.6-3-1.6 0-2.7 1.1-2.7 2.8v8.1h-3.2V10.2zm16.8 12.4c-3.5 0-5.8-2.4-5.8-6.1s2.3-6.1 5.8-6.1 5.8 2.4 5.8 6.1-2.3 6.1-5.8 6.1zm0-2.6c1.8 0 2.8-1.4 2.8-3.5s-1-3.5-2.8-3.5-2.8 1.4-2.8 3.5 1 3.5 2.8 3.5zm9.2-9.8h3.1v1.4c.6-.9 1.7-1.6 3.1-1.6 2.2 0 3.5 1.4 3.5 3.8v9.1h-3.2v-8.4c0-1.5-.7-2.3-2-2.3-1.3 0-2.2.9-2.2 2.4v8.3h-3.2v-12.7zm16.5 9.8h3.3l-4.2-6.3 4-6.4h-3.2l-2.5 4.2-2.5-4.2h-3.3l4 6.4-4.2 6.3h3.2l2.7-4.5 2.7 4.5z"/>
</svg>
