<svg xmlns="http://www.w3.org/2000/svg" viewBox="0 0 156 36" role="img" aria-label="Pinterest">
  <circle cx="16" cy="18" r="14" fill="#E60023"/>
  <path fill="#fff" d="M17.2 9.8c-1.8 0-3.3 1.1-3.9 2.7-.3.8-.4 1.6-.3 2.4.1.6.2 1.1.2 1.6 0 .9-.3 1.6-.9 1.6-.4 0-.6-.5-.6-1.2 0-.4.1-.9.2-1.3l.9-3.5c.2-.8 0-1.1-.5-1.1-1 0-1.9 1.2-1.9 3.6 0 .8.1 1.5.4 2-.1.4-.2.7-.3 1.1-.1.6-.4.8-.7.7-.6-.2-.9-1.1-.9-1.8 0-2.2 1.6-4.3 4.1-4.3 2.2 0 3.5 1.3 3.5 3.2 0 2-1.2 3.8-3.1 3.8-.6 0-1.1-.3-1.2-.8 0 0-.2 1.1-.3 1.4-.1.6-.4 1.1-.7 1.4.6.6 1.5.9 2.4.9 2.9 0 4.8-2.5 4.8-5.7 0-2.6-1.8-4.2-4.3-4.2z"/>
  <text x="38" y="24" fill="#111" font-family="Georgia, 'Palatino Linotype', 'Book Antiqua', serif" font-size="20" font-weight="700" font-style="italic" letter-spacing="-0.01em">Pinterest</text>
</svg>
