<svg xmlns="http://www.w3.org/2000/svg" viewBox="0 0 122 32" role="img" aria-label="Slack">
  <path fill="#E01E5A" d="M5 12.5a2.5 2.5 0 0 1-2.5-2.5A2.5 2.5 0 0 1 5 7.5h2.5v5z"/>
  <path fill="#E01E5A" d="M6.3 12.5a2.5 2.5 0 0 1 2.5-2.5 2.5 2.5 0 0 1 2.5 2.5v6.2A2.5 2.5 0 0 1 8.8 21a2.5 2.5 0 0 1-2.5-2.5v-6z"/>
  <path fill="#36C5F0" d="M8.8 5a2.5 2.5 0 0 1-2.5-2.5A2.5 2.5 0 0 1 8.8 0a2.5 2.5 0 0 1 2.5 2.5v2.5H8.8z"/>
  <path fill="#36C5F0" d="M8.8 6.3a2.5 2.5 0 0 1 2.5 2.5 2.5 2.5 0 0 1-2.5 2.5H2.5A2.5 2.5 0 0 1 0 8.8a2.5 2.5 0 0 1 2.5-2.5h6.3z"/>
  <path fill="#2EB67D" d="M19 8.8a2.5 2.5 0 0 1 2.5-2.5A2.5 2.5 0 0 1 24 8.8a2.5 2.5 0 0 1-2.5 2.5H19V8.8z"/>
  <path fill="#2EB67D" d="M17.7 8.8a2.5 2.5 0 0 1-2.5 2.5 2.5 2.5 0 0 1 2.5 2.5V19a2.5 2.5 0 0 1-2.5 2.5 2.5 2.5 0 0 1-2.5-2.5v-6.2z"/>
  <path fill="#ECB22E" d="M15.2 19a2.5 2.5 0 0 1 2.5 2.5A2.5 2.5 0 0 1 15.2 24a2.5 2.5 0 0 1-2.5-2.5v-2.5h2.5z"/>
  <path fill="#ECB22E" d="M15.2 17.7a2.5 2.5 0 0 1-2.5-2.5 2.5 2.5 0 0 1 2.5-2.5h6.2A2.5 2.5 0 0 1 24 15.2a2.5 2.5 0 0 1-2.5 2.5h-6.2z"/>
  <path fill="#4A154B" d="M34.5 10.5h3.2v1.4c.7-1 1.9-1.7 3.5-1.7 3.1 0 4.9 2 4.9 5.5v9h-3.3v-8.5c0-2.1-1-3.2-2.8-3.2-1.8 0-3 1.2-3 3v8.7h-3.3V10.5zm14.2 12.6c-3.6 0-6-2.5-6-6.3s2.4-6.3 6-6.3 6 2.5 6 6.3-2.4 6.3-6 6.3zm0-2.7c1.9 0 2.9-1.5 2.9-3.6s-1-3.6-2.9-3.6-2.9 1.5-2.9 3.6 1 3.6 2.9 3.6zm8.8-9.9h3.2v1.4c.6-.9 1.7-1.6 3.2-1.6 2.3 0 3.6 1.5 3.6 4v9.3h-3.3v-8.7c0-1.6-.7-2.4-2.1-2.4-1.3 0-2.3.9-2.3 2.5v8.6h-3.3V13.2zm17 9.9h3.4l-4.3-6.4 4.1-6.5h-3.3l-2.6 4.3-2.6-4.3h-3.4l4.1 6.5-4.3 6.4h3.3l2.8-4.6 2.8 4.6z"/>
</svg>
