<svg width="119" height="104" viewBox="0 0 119 104" fill="none" xmlns="http://www.w3.org/2000/svg">
    <path d="M102.399 23.488a.484.484 0 0 1-.484-.482v-4.473a.482.482 0 0 1 .485-.463.486.486 0 0 1 .484.463v4.473a.47.47 0 0 1-.142.34.475.475 0 0 1-.343.142z" fill="#9FA0A2"/>
    <path d="M104.645 21.252h-4.49a.486.486 0 0 1-.485-.482.482.482 0 0 1 .485-.483h4.49a.485.485 0 0 1 .484.483.48.48 0 0 1-.484.482z" fill="#9FA0A2"/>
    <path d="M14.662 8.766a.487.487 0 0 1-.448-.298.482.482 0 0 1-.036-.184V3.18a.482.482 0 0 1 .484-.483.485.485 0 0 1 .484.483v5.103a.478.478 0 0 1-.299.446.486.486 0 0 1-.185.036z" fill="#CDCED0"/>
    <path d="M17.223 6.217H12.1a.485.485 0 0 1-.485-.482.481.481 0 0 1 .485-.483h5.123a.485.485 0 0 1 .485.483.481.481 0 0 1-.485.482z" fill="#CDCED0"/>
    <path d="M2.985 26.139a.49.49 0 0 1-.448-.298.48.48 0 0 1-.037-.185v-4.98a.481.481 0 0 1 .485-.483.485.485 0 0 1 .484.482v4.981a.48.48 0 0 1-.484.483z" fill="#9FA0A2"/>
    <path d="M5.484 23.646h-5A.485.485 0 0 1 0 23.164a.481.481 0 0 1 .484-.483h5a.485.485 0 0 1 .485.483.482.482 0 0 1-.485.482zM70.574 9.183a.485.485 0 0 1-.484-.483V3.18a.482.482 0 0 1 .484-.482.486.486 0 0 1 .485.483V8.7a.482.482 0 0 1-.485.482z" fill="#9FA0A2"/>
    <path d="M73.344 6.42h-5.54a.485.485 0 0 1-.485-.482.482.482 0 0 1 .484-.482h5.541a.484.484 0 0 1 .342.824.484.484 0 0 1-.342.14z" fill="#9FA0A2"/>
    <path d="M86.298 16.923c-.454 0-.898-.134-1.276-.386a2.287 2.287 0 0 1-.978-2.349 2.29 2.29 0 0 1 1.807-1.798 2.303 2.303 0 0 1 2.357.975c.252.376.387.819.387 1.271a2.288 2.288 0 0 1-.674 1.616c-.43.429-1.014.67-1.623.67zm0-3.61a1.331 1.331 0 0 0-1.226.816 1.317 1.317 0 0 0 .287 1.441 1.331 1.331 0 0 0 2.043-.2 1.317 1.317 0 0 0-.165-1.669 1.334 1.334 0 0 0-.939-.388z" fill="#CDCED0"/>
    <path d="M1.946 48.345a1.952 1.952 0 0 1-1.798-1.197 1.932 1.932 0 0 1 .422-2.113 1.949 1.949 0 0 1 3.323 1.37c0 .514-.205 1.008-.57 1.371-.366.364-.86.568-1.377.569zm0-2.913a.98.98 0 0 0-.904.601.97.97 0 0 0 .213 1.062.979.979 0 0 0 1.669-.69.98.98 0 0 0-.978-.973z" fill="#181818"/>
    <path d="M49.424 34.867a.97.97 0 0 1-.895-.595.961.961 0 0 1-.073-.37V13.607a11.53 11.53 0 0 0-3.367-8.245 11.653 11.653 0 0 0-16.496 0 11.564 11.564 0 0 0-2.51 3.787 11.527 11.527 0 0 0-.856 4.458v20.295a.963.963 0 0 1-.968.965.97.97 0 0 1-.969-.965V13.607c0-3.58 1.428-7.014 3.97-9.546A13.579 13.579 0 0 1 36.841.108c3.594 0 7.041 1.422 9.583 3.953a13.472 13.472 0 0 1 3.969 9.546v20.295a.962.962 0 0 1-.599.892.971.971 0 0 1-.37.073z" fill="#4F5052"/>
    <path d="m67.288 23.57 4.027 79.12H4.193l5.56-79.12h57.535z" fill="#9FA0A2" stroke="#2C2D2E" stroke-width=".874"/>
    <path d="m76.616 23.57 5.56 79.12h-61.37l3.215-79.12h52.595z" fill="#EFF0F2" stroke="#2C2D2E" stroke-width=".874"/>
    <path d="M62.896 34.867a.972.972 0 0 1-.895-.596.962.962 0 0 1-.073-.369V13.606a11.528 11.528 0 0 0-.855-4.457 11.567 11.567 0 0 0-2.511-3.787 11.62 11.62 0 0 0-3.78-2.534 11.655 11.655 0 0 0-12.716 2.534 11.565 11.565 0 0 0-2.511 3.787 11.53 11.53 0 0 0-.856 4.458v20.295a.963.963 0 0 1-.968.965.963.963 0 0 1-.968-.965V13.606a13.452 13.452 0 0 1 1-5.198 13.496 13.496 0 0 1 2.93-4.416 13.555 13.555 0 0 1 4.41-2.954 13.598 13.598 0 0 1 14.831 2.954 13.496 13.496 0 0 1 2.93 4.416 13.454 13.454 0 0 1 1.001 5.199v20.295a.96.96 0 0 1-.598.892.972.972 0 0 1-.37.073z" fill="#4F5052"/>
    <path d="M70.151 48.875H118v48.47H70.151v-48.47z" fill="#CDCED0" stroke="#2C2D2E" stroke-width=".874"/>
    <path d="M70.151 97.345H118V103H70.151v-5.655z" fill="#181818" stroke="#2C2D2E" stroke-width=".874"/>
    <path d="M104.034 57.452a.976.976 0 0 1-.685-.283.97.97 0 0 1-.283-.683V40.501a8.893 8.893 0 0 0-2.619-6.298 8.96 8.96 0 0 0-6.323-2.609 8.96 8.96 0 0 0-6.323 2.609 8.891 8.891 0 0 0-2.619 6.298v15.985a.97.97 0 0 1-1.937 0V40.501c0-2.874 1.146-5.63 3.186-7.663a10.902 10.902 0 0 1 7.693-3.174c2.885 0 5.652 1.142 7.693 3.174a10.82 10.82 0 0 1 3.186 7.663v15.985a.957.957 0 0 1-.284.683.964.964 0 0 1-.685.283z" fill="#4F5052"/>
    <path d="M59.163 52.74a1.607 1.607 0 0 1-1.516-1.692 1.604 1.604 0 0 1 1.68-1.526 1.607 1.607 0 0 1 1.516 1.691 1.604 1.604 0 0 1-1.68 1.526zM41.684 52.74a1.607 1.607 0 0 1-1.517-1.692 1.604 1.604 0 0 1 1.68-1.526 1.607 1.607 0 0 1 1.517 1.691 1.604 1.604 0 0 1-1.68 1.526z" fill="#4F5052" stroke="#4F5052" stroke-width="1.486"/>
    <path d="M45.236 62.14s4.958-4.746 9.652-.724" stroke="#4F5052" stroke-width="2.23" stroke-miterlimit="10" stroke-linecap="round" stroke-linejoin="round"/>
    <path d="M103.015 76.504a1.607 1.607 0 0 1-1.517-1.691 1.604 1.604 0 0 1 1.68-1.526 1.607 1.607 0 0 1 1.517 1.69 1.605 1.605 0 0 1-1.68 1.527zM85.534 76.504a1.607 1.607 0 0 1-1.516-1.691 1.604 1.604 0 0 1 1.68-1.526 1.607 1.607 0 0 1 1.517 1.69 1.604 1.604 0 0 1-1.68 1.527z" fill="#4F5052" stroke="#4F5052" stroke-width="1.486"/>
    <path d="M89.087 85.905s4.958-4.746 9.653-.725" stroke="#4F5052" stroke-width="2.23" stroke-miterlimit="10" stroke-linecap="round" stroke-linejoin="round"/>
</svg>
