<svg width="33" height="33" viewBox="0 0 33 33" fill="none" xmlns="http://www.w3.org/2000/svg">
    <path d="M29.837 13.048H2.897c-.904 0-1.638.734-1.638 1.639v16.578c0 .905.734 1.639 1.639 1.639h26.939c.904 0 1.638-.734 1.638-1.639V14.687c0-.905-.734-1.639-1.638-1.639z" fill="#2C2D2E" stroke="#4F5052" stroke-width=".193" stroke-miterlimit="10"/>
    <path d="M6.465 1.69 2.926 21.194c-.01.061.03.12.091.13l10.04 1.794c.062.011.12-.03.132-.091l3.538-19.505a.112.112 0 0 0-.09-.131L6.597 1.598a.113.113 0 0 0-.132.091z" fill="#00C036" stroke="#4F5052" stroke-width=".168" stroke-miterlimit="10"/>
    <path d="M7.199 3.387 4.217 19.78a.943.943 0 0 1 .762 1.099l6.246 1.113a.951.951 0 0 1 1.105-.767l2.982-16.392a.943.943 0 0 1-.766-1.097L8.3 2.623a.95.95 0 0 1-1.101.764z" fill="#D8F1CC"/>
    <path d="M11.81 12.684a2.13 2.13 0 0 0-1.725-2.48 2.15 2.15 0 0 0-2.491 1.729 2.13 2.13 0 0 0 1.725 2.479 2.15 2.15 0 0 0 2.491-1.728zM9.75 16.17a.73.73 0 0 0-.592-.851.737.737 0 0 0-.855.593.73.73 0 0 0 .592.85c.4.071.782-.194.854-.593zM11.085 8.805a.73.73 0 0 0-.591-.85.737.737 0 0 0-.855.592.73.73 0 0 0 .592.85c.4.072.782-.194.854-.592z" fill="#00C036"/>
    <path d="M15.222 1.104 7.404 19.341a.112.112 0 0 0 .06.147l9.38 3.974a.113.113 0 0 0 .15-.06L24.81 5.166a.112.112 0 0 0-.06-.148l-9.38-3.974a.113.113 0 0 0-.15.06z" fill="#00C036" stroke="#4F5052" stroke-width=".168" stroke-miterlimit="10"/>
    <path d="M15.55 2.921 8.98 18.244a.942.942 0 0 1 .497 1.242l5.841 2.473a.953.953 0 0 1 1.248-.502l6.571-15.323a.942.942 0 0 1-.5-1.24L16.795 2.42a.952.952 0 0 1-1.244.501z" fill="#D8F1CC"/>
    <path d="M17.969 13.011a2.128 2.128 0 0 0-1.128-2.8 2.152 2.152 0 0 0-2.814 1.132 2.128 2.128 0 0 0 1.127 2.8 2.152 2.152 0 0 0 2.815-1.132zM15.18 15.952a.73.73 0 0 0-.386-.96.738.738 0 0 0-.966.388.73.73 0 0 0 .387.96.738.738 0 0 0 .965-.388zM18.13 9.068a.73.73 0 0 0-.387-.96.738.738 0 0 0-.965.388.73.73 0 0 0 .386.96.738.738 0 0 0 .965-.388z" fill="#00C036"/>
    <path d="M22.704 3.406 11.3 19.656a.112.112 0 0 0 .028.157l8.366 5.812a.113.113 0 0 0 .157-.028l11.405-16.25a.112.112 0 0 0-.028-.157l-8.366-5.812a.113.113 0 0 0-.157.028z" fill="#00C036" stroke="#4F5052" stroke-width=".168" stroke-miterlimit="10"/>
    <path d="M22.65 5.251 13.07 18.904c.43.299.534.887.232 1.317l5.211 3.621a.953.953 0 0 1 1.326-.235l9.581-13.653a.942.942 0 0 1-.235-1.317l-5.212-3.62a.952.952 0 0 1-1.321.234z" fill="#D8F1CC"/>
    <path d="M22.943 15.625a2.127 2.127 0 0 0-.528-2.972 2.152 2.152 0 0 0-2.986.53 2.128 2.128 0 0 0 .528 2.973c.97.674 2.308.437 2.986-.53zM19.608 17.932a.73.73 0 0 0-.181-1.02.738.738 0 0 0-1.025.183.73.73 0 0 0 .181 1.02.738.738 0 0 0 1.025-.183zM23.912 11.797a.73.73 0 0 0-.18-1.02.738.738 0 0 0-1.025.183.73.73 0 0 0 .18 1.02.738.738 0 0 0 1.025-.183z" fill="#00C036"/>
    <g clip-path="url(#0gpjede9da)">
        <path d="M23.198 17.713c2.637.702 5.344-.846 6.046-3.458s-.867-5.298-3.504-6-5.344.846-6.046 3.458.867 5.299 3.504 6z" fill="#FBF5E0"/>
        <path d="M23.425 16.863c2.163.575 4.383-.695 4.958-2.837.576-2.142-.71-4.345-2.873-4.92-2.163-.576-4.383.694-4.959 2.836-.575 2.142.712 4.345 2.874 4.92z" fill="#FFF8D6"/>
        <path d="M23.426 16.863c2.163.575 4.376-.667 4.942-2.776.567-2.109-.727-4.285-2.89-4.86-2.162-.576-4.375.667-4.941 2.776-.567 2.108.727 4.284 2.89 4.86z" fill="#FFB800"/>
        <path d="M23.894 15.439c-.707-.189-1.258-.513-1.652-.974l.267-.995c.152.22.372.435.662.645.294.207.6.352.918.437.265.07.494.081.69.034.195-.052.316-.162.361-.33a.406.406 0 0 0-.138-.45 1.617 1.617 0 0 0-.236-.19l-.147-.097-.346-.213-.319-.205a4.456 4.456 0 0 1-.285-.197 1.877 1.877 0 0 1-.265-.22c-.19-.221-.302-.396-.334-.523a1.476 1.476 0 0 1 .013-.693c.11-.412.356-.693.737-.842.382-.155.847-.16 1.393-.014.55.147 1.029.411 1.434.794l-.25.93c-.4-.42-.869-.701-1.406-.844-.533-.142-.84-.06-.922.245-.036.133.018.261.162.385.085.08.2.16.346.241.195.114.352.207.47.282.358.223.655.475.892.756.255.3.325.665.21 1.094-.12.447-.392.752-.815.914-.422.163-.902.173-1.44.03z" fill="#fff"/>
    </g>
    <g clip-path="url(#69ke9xf0tb)">
        <path d="M18.848 17.642c2.02-.404 3.33-2.352 2.926-4.352-.404-2-2.368-3.294-4.387-2.89-2.02.403-3.33 2.351-2.926 4.351.404 2 2.368 3.295 4.387 2.89z" fill="#FBF5E0"/>
        <path d="M18.72 16.99c1.657-.331 2.73-1.93 2.4-3.57-.331-1.64-1.942-2.7-3.598-2.37-1.656.331-2.73 1.93-2.4 3.57.332 1.64 1.942 2.7 3.599 2.37z" fill="#FFF8D6"/>
        <path d="M18.717 16.99c1.656-.331 2.735-1.908 2.409-3.523-.326-1.615-1.933-2.655-3.588-2.324-1.656.33-2.735 1.908-2.409 3.523.326 1.614 1.932 2.655 3.588 2.324z" fill="#FFB800"/>
        <path d="M18.556 15.87c-.542.109-1.023.073-1.445-.107l-.154-.762c.177.098.398.17.665.216.268.041.524.038.768-.01.202-.041.361-.11.477-.207.115-.1.16-.216.134-.344a.308.308 0 0 0-.245-.258 1.232 1.232 0 0 0-.224-.05l-.132-.016-.305-.03-.285-.032a3.4 3.4 0 0 1-.259-.038 1.417 1.417 0 0 1-.253-.06c-.203-.087-.337-.168-.402-.243a1.117 1.117 0 0 1-.224-.473.887.887 0 0 1 .216-.815c.206-.232.518-.39.937-.473a2.487 2.487 0 0 1 1.237.06l.143.71a2.251 2.251 0 0 0-1.235-.101c-.408.081-.588.239-.54.473.02.101.1.17.239.205.083.026.188.042.314.049.17.011.308.023.414.033.316.032.602.104.856.215.274.118.444.342.51.67a.962.962 0 0 1-.243.89c-.232.25-.553.417-.964.499z" fill="#fff"/>
    </g>
    <g clip-path="url(#sfdmvqav4c)">
        <path d="M5.762 16.886c2.232-.43 3.692-2.572 3.262-4.783-.431-2.21-2.59-3.654-4.822-3.223C1.97 9.311.51 11.453.94 13.664c.431 2.21 2.59 3.653 4.822 3.222z" fill="#FBF5E0"/>
        <path d="M5.622 16.166c1.83-.353 3.028-2.11 2.674-3.923C7.943 10.43 6.172 9.247 4.342 9.6c-1.83.354-3.028 2.11-2.675 3.923.354 1.813 2.124 2.996 3.955 2.643z" fill="#FFF8D6"/>
        <path d="M5.621 16.166c1.83-.353 3.033-2.087 2.685-3.871-.348-1.785-2.114-2.946-3.945-2.592-1.83.353-3.032 2.087-2.684 3.871.348 1.785 2.114 2.946 3.944 2.592z" fill="#FFB800"/>
        <path d="M5.454 14.93c-.599.115-1.13.072-1.594-.13l-.165-.843c.195.11.439.191.732.243.296.048.579.046.848-.006.224-.043.4-.118.528-.224.128-.11.179-.237.15-.379a.34.34 0 0 0-.267-.286 1.349 1.349 0 0 0-.247-.057l-.146-.02-.337-.033-.314-.039a3.69 3.69 0 0 1-.286-.044 1.568 1.568 0 0 1-.278-.068c-.224-.097-.371-.187-.442-.27a1.231 1.231 0 0 1-.244-.525.98.98 0 0 1 .244-.898c.23-.254.575-.426 1.038-.515.466-.09.92-.065 1.365.075l.153.786a2.487 2.487 0 0 0-1.362-.121c-.451.086-.652.26-.601.518.022.112.11.188.263.229.092.029.207.047.347.055.187.014.34.028.456.04.349.038.664.119.944.244.3.132.487.38.557.743.074.378-.018.705-.275.98s-.613.456-1.067.544z" fill="#fff"/>
    </g>
    <g clip-path="url(#ieilu947pd)">
        <path d="M7.78 13.712c1.977.159 3.709-1.3 3.867-3.259.158-1.958-1.316-3.674-3.293-3.833-1.978-.158-3.709 1.301-3.867 3.26-.159 1.958 1.316 3.674 3.293 3.832z" fill="#FBF5E0"/>
        <path d="M7.833 13.074c1.621.13 3.041-1.066 3.171-2.673.13-1.606-1.08-3.013-2.7-3.143-1.622-.13-3.042 1.067-3.172 2.673-.13 1.606 1.08 3.013 2.7 3.143z" fill="#FFF8D6"/>
        <path d="M7.832 13.074c1.622.13 3.04-1.046 3.168-2.627.128-1.581-1.083-2.968-2.705-3.098-1.621-.13-3.04 1.046-3.167 2.628-.128 1.58 1.083 2.967 2.704 3.097z" fill="#FFB800"/>
        <path d="M7.98 11.995c-.53-.042-.967-.202-1.31-.48l.061-.747c.138.138.324.263.558.375.237.11.476.174.714.193.198.016.364-.006.497-.065.133-.063.205-.158.215-.284a.295.295 0 0 0-.158-.303 1.181 1.181 0 0 0-.194-.105l-.117-.05-.276-.107-.255-.106a3.194 3.194 0 0 1-.23-.103c-.1-.048-.173-.09-.218-.123-.164-.133-.267-.243-.307-.33a1.072 1.072 0 0 1-.082-.498.857.857 0 0 1 .417-.697c.252-.16.584-.224.993-.191.413.033.79.16 1.13.38l-.056.697a2.166 2.166 0 0 0-1.117-.42c-.4-.032-.608.067-.627.296-.008.1.048.184.167.254.07.045.164.088.279.127.154.056.279.102.373.14.285.113.53.255.736.425.222.181.32.433.294.755a.929.929 0 0 1-.462.759c-.28.171-.622.24-1.025.208z" fill="#fff"/>
    </g>
    <g clip-path="url(#99v9domine)">
        <path d="M10.45 17.48c1.947-.376 3.221-2.244 2.845-4.173-.376-1.929-2.26-3.188-4.206-2.812-1.948.377-3.222 2.245-2.846 4.174.376 1.928 2.26 3.187 4.207 2.811z" fill="#FBF5E0"/>
        <path d="M10.329 16.852c1.597-.308 2.641-1.84 2.333-3.422-.308-1.582-1.853-2.614-3.45-2.306-1.597.308-2.642 1.84-2.333 3.422.308 1.582 1.853 2.614 3.45 2.306z" fill="#FFF8D6"/>
        <path d="M10.327 16.852c1.597-.308 2.645-1.82 2.342-3.378-.304-1.557-1.844-2.57-3.441-2.26-1.597.307-2.646 1.82-2.342 3.377.303 1.557 1.844 2.57 3.44 2.261z" fill="#FFB800"/>
        <path d="M10.179 15.773c-.523.1-.986.063-1.391-.113l-.143-.735c.17.096.382.167.638.212.258.042.505.04.74-.005.195-.038.349-.103.46-.196.112-.096.156-.207.132-.33a.296.296 0 0 0-.234-.25 1.182 1.182 0 0 0-.216-.05l-.126-.017-.294-.03-.274-.033a3.244 3.244 0 0 1-.25-.038c-.11-.02-.19-.04-.243-.06-.195-.084-.323-.163-.385-.236a1.075 1.075 0 0 1-.213-.457.854.854 0 0 1 .213-.784c.2-.221.502-.371.905-.45a2.397 2.397 0 0 1 1.191.066l.134.686a2.169 2.169 0 0 0-1.189-.106c-.393.076-.568.227-.524.452.019.098.095.165.23.2.08.025.18.041.302.048.164.013.296.024.398.035.305.033.58.104.823.213.263.115.425.331.487.648a.926.926 0 0 1-.24.855c-.224.24-.534.398-.931.475z" fill="#fff"/>
    </g>
    <path d="M29.059 14.494H1.739a.771.771 0 0 0-.77.771V32.23c0 .426.345.771.77.771h27.32a.771.771 0 0 0 .77-.77V15.264a.771.771 0 0 0-.77-.77z" fill="#4F5052"/>
    <path d="M27.737 15.844H3.06a.737.737 0 0 0-.737.737v14.526c0 .407.33.737.737.737h24.676c.407 0 .737-.33.737-.737V16.581a.737.737 0 0 0-.737-.737z" stroke="#fff" stroke-width=".276" stroke-miterlimit="10" stroke-dasharray="0.87 0.87"/>
    <path d="M29.237 21.574h-4.005a2.763 2.763 0 1 0 0 5.525h4.005a2.763 2.763 0 0 0 0-5.525z" fill="#2C2D2E" stroke="#4F5052" stroke-width=".193" stroke-miterlimit="10"/>
    <path d="M25.113 25.73c.818 0 1.48-.66 1.48-1.473 0-.814-.662-1.473-1.48-1.473-.817 0-1.48.66-1.48 1.473 0 .814.663 1.474 1.48 1.474z" fill="#fff"/>
    <defs>
        <clipPath id="0gpjede9da">
            <path fill="#fff" transform="rotate(14.903 -15.507 83.087) skewX(-.137)" d="M0 0h10.212v10.17H0z"/>
        </clipPath>
        <clipPath id="69ke9xf0tb">
            <path fill="#fff" transform="rotate(-11.303 62.54 -63.13) skewX(.106)" d="M0 0h7.706v7.672H0z"/>
        </clipPath>
        <clipPath id="sfdmvqav4c">
            <path fill="#fff" transform="rotate(-10.927 49.936 4.776) skewX(.103)" d="M0 0h8.507v8.47H0z"/>
        </clipPath>
        <clipPath id="ieilu947pd">
            <path fill="#fff" transform="rotate(4.58 -75.255 61.42) skewX(-.044)" d="M0 0h7.423v7.388H0z"/>
        </clipPath>
        <clipPath id="99v9domine">
            <path fill="#fff" transform="rotate(-10.927 60.64 -22.801) skewX(.103)" d="M0 0h7.422v7.389H0z"/>
        </clipPath>
    </defs>
</svg>
