<svg xmlns="http://www.w3.org/2000/svg" viewBox="0 0 200 180" fill="none" aria-hidden="true">
  <ellipse cx="100" cy="168" rx="62" ry="8" fill="#000" fill-opacity=".06"/>
  <rect x="34" y="34" width="132" height="118" rx="14" fill="#DBEAFE"/>
  <rect x="34" y="34" width="132" height="28" rx="14" fill="#0B7AFC"/>
  <rect x="34" y="50" width="132" height="12" fill="#0B7AFC"/>
  <circle cx="52" cy="48" r="5" fill="#fff" fill-opacity=".9"/>
  <circle cx="66" cy="48" r="5" fill="#fff" fill-opacity=".55"/>
  <circle cx="80" cy="48" r="5" fill="#fff" fill-opacity=".55"/>
  <rect x="48" y="78" width="18" height="52" rx="6" fill="#0B7AFC"/>
  <rect x="74" y="92" width="18" height="38" rx="6" fill="#8D12E7"/>
  <rect x="100" y="68" width="18" height="62" rx="6" fill="#22C55E"/>
  <rect x="126" y="84" width="18" height="46" rx="6" fill="#F97316"/>
  <path d="M48 70h84" stroke="#93C5FD" stroke-width="2" stroke-linecap="round"/>
  <circle cx="148" cy="58" r="22" fill="#fff"/>
  <circle cx="148" cy="58" r="16" fill="#EFF6FF"/>
  <path d="M148 48v20M138 58h20" stroke="#0B7AFC" stroke-width="3" stroke-linecap="round"/>
  <rect x="42" y="138" width="56" height="8" rx="4" fill="#BFDBFE"/>
  <rect x="42" y="138" width="38" height="8" rx="4" fill="#0B7AFC"/>
  <path d="M118 136l10 8 18-22" stroke="#22C55E" stroke-width="4" stroke-linecap="round" stroke-linejoin="round"/>
</svg>
