<svg xmlns="http://www.w3.org/2000/svg" width="51" height="51" viewBox="0 0 51 51" fill="none"><path fill-rule="evenodd" clip-rule="evenodd" d="M27.108 8.13a2.16 2.16 0 0 0-3.05 0L22.99 9.193a.72.72 0 0 1-.665.193l-1.62-.362a2.166 2.166 0 0 0-2.58 1.625l-.657 2.814a.725.725 0 0 1-.37.477l-3.38 1.766a2.178 2.178 0 0 0-.938 2.898l1.17 2.354c.108.22.1.479-.024.69l-.57.975a2.178 2.178 0 0 0 .741 2.955l1.684 1.031c.18.11.302.293.336.501l.813 4.96-4.792 10.401a.726.726 0 0 0 .159.83.72.72 0 0 0 .834.115l5.376-2.857a.72.72 0 0 1 .738.038l3.616 2.419a.72.72 0 0 0 1.062-.313l1.753-4.02 1.228 3.946a.723.723 0 0 0 1.09.387l3.634-2.432a.72.72 0 0 1 .724-.045l5.026 2.522a.72.72 0 0 0 .815-.117.727.727 0 0 0 .175-.807l-4.135-10.05.526-3.206a.724.724 0 0 1 .423-.546l2.59-1.137a2.177 2.177 0 0 0 1.132-2.828l-1.413-3.402a.727.727 0 0 1 .02-.602l.875-1.762a2.178 2.178 0 0 0-.938-2.898l-1.018-.532a.724.724 0 0 1-.386-.574l-.262-2.746a2.168 2.168 0 0 0-2.336-1.959l-3.88.324a.72.72 0 0 1-.567-.208l-1.89-1.88zm-12.761 33 3.824-8.3 3.884-.593a.72.72 0 0 1 .65.238l2.015 2.295.319 1.759-2.094 4.802-2.899-1.94a2.16 2.16 0 0 0-2.214-.112l-3.485 1.851zm12.144-4.687-.313-1.723 2.618-2.274a.72.72 0 0 1 .581-.168l3.599.55 3.32 8.07-3.298-1.655a2.159 2.159 0 0 0-2.17.135l-2.833 1.896-1.504-4.831zm6.843-7.797-.443 2.703-3.296-.504a2.16 2.16 0 0 0-1.744.505l-2.388 2.075-1.673-1.908a2.162 2.162 0 0 0-1.952-.712l-3.563.544-.733-4.474a2.174 2.174 0 0 0-1.009-1.503l-1.684-1.031a.726.726 0 0 1-.247-.985l.57-.976a2.18 2.18 0 0 0 .07-2.068l-1.17-2.355a.726.726 0 0 1 .313-.966l3.38-1.766c.56-.292.964-.815 1.108-1.431l.658-2.814a.722.722 0 0 1 .86-.542l1.62.362c.72.161 1.472-.057 1.996-.578l1.068-1.063a.72.72 0 0 1 1.017 0l1.89 1.881c.45.448 1.073.676 1.704.623l3.88-.324a.723.723 0 0 1 .779.653l.262 2.747c.07.732.505 1.38 1.156 1.72l1.018.532c.35.183.489.613.313.966l-.875 1.762a2.18 2.18 0 0 0-.06 1.806l1.412 3.403a.726.726 0 0 1-.377.942l-2.59 1.137a2.173 2.173 0 0 0-1.27 1.639zm-6.437-13.263a1.08 1.08 0 0 0-1.856 0l-1.493 2.491-2.822.656a1.088 1.088 0 0 0-.574 1.771l1.9 2.196-.251 2.896c-.07.816.75 1.414 1.501 1.095l2.667-1.134 2.667 1.134a1.084 1.084 0 0 0 1.501-1.095l-.25-2.896 1.899-2.196a1.088 1.088 0 0 0-.574-1.77l-2.822-.657-1.493-2.49zm-2.191 3.37 1.263-2.107 1.263 2.107c.151.252.398.432.684.498l2.386.555-1.606 1.857a1.09 1.09 0 0 0-.26.806l.211 2.45-2.255-.96a1.08 1.08 0 0 0-.845 0l-2.256.96.212-2.45a1.09 1.09 0 0 0-.261-.806l-1.606-1.857 2.386-.555c.286-.066.533-.246.684-.498z" fill="#0B7AFC" stroke="#0B7AFC" stroke-width=".5"></path></svg>