<svg xmlns="http://www.w3.org/2000/svg" width="51" height="51" viewBox="0 0 51 51" fill="none"><path d="M20.37 8.5v1.943m0 0h4.914m-4.915 0v1.943m0-1.943h-4.914m9.83-1.943v1.943m0 0h4.914m-4.915 0v1.943M30.2 8.5v1.943m0 0h4.915m-4.915 0v1.943M35.114 8.5v1.943m0 0h8.172V32.3h-4.535m-3.637-21.857v1.943M19.878 42.5v-2.429c0-2.682-2.2-4.857-4.915-4.857m4.915 7.286h-9.83v-2.429c0-2.682 2.2-4.857 4.915-4.857m4.915 7.286h11.021v-2.723c0-3.008-2.467-5.8-5.51-5.8M19.878 42.5v-2.723c0-3.008 2.467-5.8 5.51-5.8m-10.425 1.237c1.629 0 2.95-1.304 2.95-2.914m-2.95 2.914c-1.628 0-2.949-1.304-2.949-2.914m5.898 0c0-1.61-1.32-2.914-2.949-2.914-1.628 0-2.949 1.305-2.949 2.914m5.898 0H22.5m-10.485 0H7.286V10.443h8.169m20.347 24.771c2.714 0 4.915 2.175 4.915 4.857V42.5h-9.83v-2.429c0-2.682 2.2-4.857 4.915-4.857zm0 0c1.629 0 2.949-1.304 2.949-2.914m-2.95 2.914c-1.628 0-2.948-1.304-2.948-2.914m5.898 0c0-1.61-1.32-2.914-2.95-2.914-1.628 0-2.948 1.305-2.948 2.914m0 0h-4.575m-2.89 1.678A3.312 3.312 0 0 1 22.5 32.3m2.89 1.678a3.312 3.312 0 0 0 2.889-1.678M15.455 12.386v-1.943m0 0V8.5m7.044 23.8a3.223 3.223 0 0 1-.417-1.59c0-1.804 1.48-3.267 3.306-3.267 1.827 0 3.307 1.463 3.307 3.267 0 .577-.151 1.12-.417 1.59" stroke="#FFB800" stroke-width="2" stroke-linecap="round" stroke-linejoin="round"></path><path d="M25.098 17.021a.2.2 0 0 1 .376 0l.887 2.456a.2.2 0 0 0 .188.132h2.821c.199 0 .276.259.11.368l-2.245 1.468a.2.2 0 0 0-.079.235l.866 2.398a.2.2 0 0 1-.298.235l-2.328-1.523a.2.2 0 0 0-.22 0l-2.328 1.523a.2.2 0 0 1-.298-.235l.866-2.398a.2.2 0 0 0-.079-.235l-2.244-1.468c-.167-.109-.09-.368.11-.368h2.82a.2.2 0 0 0 .188-.132l.887-2.456z" stroke="#FFB800" stroke-width="1.75"></path></svg>