<svg xmlns="http://www.w3.org/2000/svg" width="38" height="38" viewBox="0 0 38 38" fill="none"><mask id="path-1-outside-1_512_56733" maskUnits="userSpaceOnUse" x="6.17773" y="5.42224" width="25" height="27" fill="black"><rect fill="white" x="6.17773" y="5.42224" width="25" height="27"></rect><path fill-rule="evenodd" clip-rule="evenodd" d="M26.9655 11.5368H29.9494C30.3092 11.5368 30.6 11.8225 30.6 12.1761V30.7163C30.6 31.0699 30.3092 31.3556 29.9493 31.3556H7.82835C7.46848 31.3556 7.17773 31.0699 7.17773 30.7163V12.1761C7.17773 11.8225 7.46848 11.5368 7.82835 11.5368H10.8122L10.6443 11.3718C10.0872 10.8244 9.78022 10.0963 9.78022 9.32145C9.78022 7.72258 11.1035 6.42224 12.7307 6.42224C13.5192 6.42224 14.2605 6.72391 14.8173 7.27133L18.8889 11.2722L22.9605 7.27133C23.5175 6.72392 24.2585 6.42224 25.047 6.42224C26.6742 6.42224 27.9975 7.72258 27.9975 9.32145C27.9975 10.0963 27.6905 10.8247 27.1334 11.3718L26.9655 11.5368ZM21.4913 15.3727H29.2987V12.8154H21.4913V15.3727ZM17.5876 12.8154V15.3727H20.1901V12.8154H17.5876ZM20.1901 30.0769V16.6513H17.5876V30.0769H20.1901ZM11.0812 9.32129C11.0812 9.7548 11.2529 10.1621 11.564 10.4677L12.6521 11.5366H17.3182L13.897 8.17507C13.5853 7.86939 13.1717 7.70071 12.7305 7.70071C11.8216 7.70071 11.0812 8.42822 11.0812 9.32129ZM16.2862 15.3725V12.8152H8.47878V15.3725H16.2862ZM16.2862 16.6511H8.47878V30.0768H16.2862V16.6511ZM21.4911 30.0768H29.2985V16.6511H21.4911V30.0768ZM26.1 10.4776C26.3967 10.186 26.5601 9.79812 26.5601 9.38505C26.5601 8.53495 25.8548 7.84003 24.9865 7.84003C24.5649 7.84003 24.1703 8.00105 23.8729 8.29277L20.5834 11.5248H25.0339L26.1 10.4776Z"></path></mask><path fill-rule="evenodd" clip-rule="evenodd" d="M26.9655 11.5368H29.9494C30.3092 11.5368 30.6 11.8225 30.6 12.1761V30.7163C30.6 31.0699 30.3092 31.3556 29.9493 31.3556H7.82835C7.46848 31.3556 7.17773 31.0699 7.17773 30.7163V12.1761C7.17773 11.8225 7.46848 11.5368 7.82835 11.5368H10.8122L10.6443 11.3718C10.0872 10.8244 9.78022 10.0963 9.78022 9.32145C9.78022 7.72258 11.1035 6.42224 12.7307 6.42224C13.5192 6.42224 14.2605 6.72391 14.8173 7.27133L18.8889 11.2722L22.9605 7.27133C23.5175 6.72392 24.2585 6.42224 25.047 6.42224C26.6742 6.42224 27.9975 7.72258 27.9975 9.32145C27.9975 10.0963 27.6905 10.8247 27.1334 11.3718L26.9655 11.5368ZM21.4913 15.3727H29.2987V12.8154H21.4913V15.3727ZM17.5876 12.8154V15.3727H20.1901V12.8154H17.5876ZM20.1901 30.0769V16.6513H17.5876V30.0769H20.1901ZM11.0812 9.32129C11.0812 9.7548 11.2529 10.1621 11.564 10.4677L12.6521 11.5366H17.3182L13.897 8.17507C13.5853 7.86939 13.1717 7.70071 12.7305 7.70071C11.8216 7.70071 11.0812 8.42822 11.0812 9.32129ZM16.2862 15.3725V12.8152H8.47878V15.3725H16.2862ZM16.2862 16.6511H8.47878V30.0768H16.2862V16.6511ZM21.4911 30.0768H29.2985V16.6511H21.4911V30.0768ZM26.1 10.4776C26.3967 10.186 26.5601 9.79812 26.5601 9.38505C26.5601 8.53495 25.8548 7.84003 24.9865 7.84003C24.5649 7.84003 24.1703 8.00105 23.8729 8.29277L20.5834 11.5248H25.0339L26.1 10.4776Z" fill="#00C036"></path><path d="M26.9655 11.5368L26.8596 11.429L26.5961 11.6879H26.9655V11.5368ZM10.8122 11.5368V11.6879H11.1816L10.9181 11.429L10.8122 11.5368ZM10.6443 11.3718L10.7502 11.264L10.7502 11.264L10.6443 11.3718ZM14.8173 7.27133L14.7113 7.37908L14.7113 7.37911L14.8173 7.27133ZM18.8889 11.2722L18.7829 11.38L18.8889 11.4841L18.9948 11.38L18.8889 11.2722ZM22.9605 7.27133L23.0664 7.37911L23.0664 7.37911L22.9605 7.27133ZM27.1334 11.3718L27.0275 11.264L27.0275 11.264L27.1334 11.3718ZM29.2987 15.3727V15.5238H29.4499V15.3727H29.2987ZM21.4913 15.3727H21.3402V15.5238H21.4913V15.3727ZM29.2987 12.8154H29.4499V12.6643H29.2987V12.8154ZM21.4913 12.8154V12.6643H21.3402V12.8154H21.4913ZM17.5876 15.3727H17.4365V15.5238H17.5876V15.3727ZM17.5876 12.8154V12.6643H17.4365V12.8154H17.5876ZM20.1901 15.3727V15.5238H20.3412V15.3727H20.1901ZM20.1901 12.8154H20.3412V12.6643H20.1901V12.8154ZM20.1901 16.6513H20.3412V16.5002H20.1901V16.6513ZM20.1901 30.0769V30.228H20.3412V30.0769H20.1901ZM17.5876 16.6513V16.5002H17.4365V16.6513H17.5876ZM17.5876 30.0769H17.4365V30.228H17.5876V30.0769ZM11.564 10.4677L11.4581 10.5755L11.4581 10.5755L11.564 10.4677ZM12.6521 11.5366L12.5462 11.6444L12.5903 11.6877H12.6521V11.5366ZM17.3182 11.5366V11.6877H17.6876L17.4241 11.4288L17.3182 11.5366ZM13.897 8.17507L14.0029 8.06728L14.0028 8.06718L13.897 8.17507ZM16.2862 12.8152H16.4373V12.6641H16.2862V12.8152ZM16.2862 15.3725V15.5236H16.4373V15.3725H16.2862ZM8.47878 12.8152V12.6641H8.32766V12.8152H8.47878ZM8.47878 15.3725H8.32766V15.5236H8.47878V15.3725ZM8.47878 16.6511V16.5H8.32766V16.6511H8.47878ZM16.2862 16.6511H16.4373V16.5H16.2862V16.6511ZM8.47878 30.0768H8.32766V30.2279H8.47878V30.0768ZM16.2862 30.0768V30.2279H16.4373V30.0768H16.2862ZM29.2985 30.0768V30.2279H29.4496V30.0768H29.2985ZM21.4911 30.0768H21.34V30.2279H21.4911V30.0768ZM29.2985 16.6511H29.4496V16.5H29.2985V16.6511ZM21.4911 16.6511V16.5H21.34V16.6511H21.4911ZM26.1 10.4776L26.2059 10.5854L26.2059 10.5854L26.1 10.4776ZM23.8729 8.29277L23.767 8.18489L23.767 8.18498L23.8729 8.29277ZM20.5834 11.5248L20.4775 11.417L20.2139 11.6759H20.5834V11.5248ZM25.0339 11.5248V11.6759H25.0957L25.1398 11.6326L25.0339 11.5248ZM29.9494 11.3856H26.9655V11.6879H29.9494V11.3856ZM30.7511 12.1761C30.7511 11.7365 30.3902 11.3856 29.9494 11.3856V11.6879C30.2283 11.6879 30.4488 11.9084 30.4488 12.1761H30.7511ZM30.7511 30.7163V12.1761H30.4488V30.7163H30.7511ZM29.9493 31.5067C30.3902 31.5067 30.7511 31.1558 30.7511 30.7163H30.4488C30.4488 30.9839 30.2283 31.2045 29.9493 31.2045V31.5067ZM7.82835 31.5067H29.9493V31.2045H7.82835V31.5067ZM7.02662 30.7163C7.02662 31.1558 7.38753 31.5067 7.82835 31.5067V31.2045C7.54943 31.2045 7.32885 30.9839 7.32885 30.7163H7.02662ZM7.02662 12.1761V30.7163H7.32885V12.1761H7.02662ZM7.82835 11.3856C7.38753 11.3856 7.02662 11.7365 7.02662 12.1761H7.32885C7.32885 11.9084 7.54943 11.6879 7.82835 11.6879V11.3856ZM10.8122 11.3856H7.82835V11.6879H10.8122V11.3856ZM10.5384 11.4796L10.7063 11.6445L10.9181 11.429L10.7502 11.264L10.5384 11.4796ZM9.62911 9.32145C9.62911 10.1372 9.95269 10.904 10.5384 11.4796L10.7502 11.264C10.2218 10.7447 9.93133 10.0554 9.93133 9.32145H9.62911ZM12.7307 6.27113C11.0226 6.27113 9.62911 7.63663 9.62911 9.32145H9.93133C9.93133 7.80852 11.1845 6.57335 12.7307 6.57335V6.27113ZM14.9232 7.16357C14.3378 6.58807 13.5584 6.27113 12.7307 6.27113V6.57335C13.48 6.57335 14.1831 6.85975 14.7113 7.37908L14.9232 7.16357ZM18.9948 11.1644L14.9232 7.16354L14.7113 7.37911L18.7829 11.38L18.9948 11.1644ZM22.8545 7.16354L18.7829 11.1644L18.9948 11.38L23.0664 7.37911L22.8545 7.16354ZM25.047 6.27113C24.2193 6.27113 23.4402 6.58809 22.8545 7.16354L23.0664 7.37911C23.5949 6.85975 24.2977 6.57335 25.047 6.57335V6.27113ZM28.1486 9.32145C28.1486 7.63663 26.7551 6.27113 25.047 6.27113V6.57335C26.5932 6.57335 27.8464 7.80852 27.8464 9.32145H28.1486ZM27.2393 11.4796C27.8251 10.9043 28.1486 10.1372 28.1486 9.32145H27.8464C27.8464 10.0554 27.5559 10.745 27.0275 11.264L27.2393 11.4796ZM27.0714 11.6445L27.2393 11.4796L27.0275 11.264L26.8596 11.429L27.0714 11.6445ZM29.2987 15.2215H21.4913V15.5238H29.2987V15.2215ZM29.1476 12.8154V15.3727H29.4499V12.8154H29.1476ZM21.4913 12.9665H29.2987V12.6643H21.4913V12.9665ZM21.6425 15.3727V12.8154H21.3402V15.3727H21.6425ZM17.7388 15.3727V12.8154H17.4365V15.3727H17.7388ZM20.1901 15.2215H17.5876V15.5238H20.1901V15.2215ZM20.039 12.8154V15.3727H20.3412V12.8154H20.039ZM17.5876 12.9665H20.1901V12.6643H17.5876V12.9665ZM20.039 16.6513V30.0769H20.3412V16.6513H20.039ZM17.5876 16.8024H20.1901V16.5002H17.5876V16.8024ZM17.7388 30.0769V16.6513H17.4365V30.0769H17.7388ZM20.1901 29.9258H17.5876V30.228H20.1901V29.9258ZM11.6699 10.36C11.3875 10.0825 11.2323 9.71392 11.2323 9.32129H10.9301C10.9301 9.79567 11.1183 10.2417 11.4581 10.5755L11.6699 10.36ZM12.758 11.4288L11.6699 10.3599L11.4581 10.5755L12.5462 11.6444L12.758 11.4288ZM17.3182 11.3855H12.6521V11.6877H17.3182V11.3855ZM13.791 8.28285L17.2123 11.6444L17.4241 11.4288L14.0029 8.06728L13.791 8.28285ZM12.7305 7.85183C13.1324 7.85183 13.5079 8.00519 13.7911 8.28295L14.0028 8.06718C13.6626 7.7336 13.2109 7.5496 12.7305 7.5496V7.85183ZM11.2323 9.32129C11.2323 8.51416 11.9025 7.85183 12.7305 7.85183V7.5496C11.7406 7.5496 10.9301 8.34228 10.9301 9.32129H11.2323ZM16.1351 12.8152V15.3725H16.4373V12.8152H16.1351ZM8.47878 12.9664H16.2862V12.6641H8.47878V12.9664ZM8.62989 15.3725V12.8152H8.32766V15.3725H8.62989ZM16.2862 15.2214H8.47878V15.5236H16.2862V15.2214ZM8.47878 16.8023H16.2862V16.5H8.47878V16.8023ZM8.62989 30.0768V16.6511H8.32766V30.0768H8.62989ZM16.2862 29.9257H8.47878V30.2279H16.2862V29.9257ZM16.1351 16.6511V30.0768H16.4373V16.6511H16.1351ZM29.2985 29.9257H21.4911V30.2279H29.2985V29.9257ZM29.1474 16.6511V30.0768H29.4496V16.6511H29.1474ZM21.4911 16.8023H29.2985V16.5H21.4911V16.8023ZM21.6422 30.0768V16.6511H21.34V30.0768H21.6422ZM26.4089 9.38505C26.4089 9.75724 26.2621 10.1064 25.994 10.3698L26.2059 10.5854C26.5312 10.2656 26.7112 9.83899 26.7112 9.38505H26.4089ZM24.9865 7.99114C25.7738 7.99114 26.4089 8.62085 26.4089 9.38505H26.7112C26.7112 8.44904 25.9357 7.68892 24.9865 7.68892V7.99114ZM23.9787 8.40064C24.2476 8.13685 24.6041 7.99114 24.9865 7.99114V7.68892C24.5256 7.68892 24.0929 7.86525 23.767 8.18489L23.9787 8.40064ZM20.6893 11.6326L23.9788 8.40056L23.767 8.18498L20.4775 11.417L20.6893 11.6326ZM25.0339 11.3737H20.5834V11.6759H25.0339V11.3737ZM25.9941 10.3698L24.928 11.417L25.1398 11.6326L26.2059 10.5854L25.9941 10.3698Z" fill="#00C036" mask="url(#path-1-outside-1_512_56733)"></path></svg>