<svg xmlns="http://www.w3.org/2000/svg" width="51" height="51" viewBox="0 0 51 51" fill="none"><path d="M43.417 34.968a.873.873 0 0 0 0-1.234l-3.873-3.872a.874.874 0 0 0-1.233 0l-3.873 3.872a.873.873 0 0 0 0 1.234c.342.34.893.34 1.234 0l2.383-2.383v6.13a4.696 4.696 0 0 1-4.69 4.69h-4.173a.872.872 0 1 0 0 1.745h4.172a6.443 6.443 0 0 0 6.436-6.436v-6.13l2.383 2.384a.872.872 0 0 0 1.234 0zM8.011 16.032a.873.873 0 0 0 0 1.234l3.873 3.872a.872.872 0 0 0 1.234 0l3.873-3.872a.873.873 0 0 0 0-1.234.874.874 0 0 0-1.234 0l-2.384 2.383v-6.13a4.696 4.696 0 0 1 4.691-4.69h4.173a.872.872 0 1 0 0-1.745h-4.173a6.443 6.443 0 0 0-6.435 6.436v6.13l-2.384-2.384a.874.874 0 0 0-1.234 0zm31.855 5.334h.002l.02-.006a.871.871 0 0 0 .63-.837c0-1.991-1.117-3.712-2.748-4.61a3.594 3.594 0 0 0 1.094-2.576 3.635 3.635 0 0 0-3.63-3.63 3.635 3.635 0 0 0-3.632 3.63c0 1.014.427 1.92 1.097 2.576-1.63.898-2.749 2.617-2.749 4.61 0 .381.249.72.613.833 1.491.465 3.023.696 4.584.696a17.1 17.1 0 0 0 4.719-.686zm-4.63-4.379h.114a3.545 3.545 0 0 1 3.363 2.882c-2.394.582-4.728.585-6.959.013a3.544 3.544 0 0 1 3.481-2.895zM18.91 34.92a3.594 3.594 0 0 0 1.096-2.576 3.635 3.635 0 0 0-3.632-3.63 3.635 3.635 0 0 0-3.63 3.63c0 1.014.426 1.92 1.096 2.576-1.63.898-2.749 2.617-2.749 4.61 0 .382.249.72.613.833 1.491.465 3.023.696 4.584.696 1.555 0 3.14-.231 4.74-.692a.871.871 0 0 0 .63-.837c0-1.99-1.117-3.71-2.748-4.61zm26.454-18.807c0-5.657-4.602-10.259-10.26-10.259-5.66 0-10.262 4.602-10.262 10.26 0 5.656 4.603 10.258 10.261 10.258 5.659 0 10.261-4.602 10.261-10.259zm-18.777 0c0-4.695 3.82-8.515 8.516-8.515 4.697 0 8.517 3.82 8.517 8.515 0 4.696-3.82 8.515-8.517 8.515-4.696 0-8.516-3.82-8.516-8.515zm-10.261 8.515c-5.659 0-10.262 4.602-10.262 10.26 0 5.657 4.603 10.258 10.262 10.258 5.658 0 10.26-4.602 10.26-10.259s-4.602-10.259-10.26-10.259zm0 18.774c-4.697 0-8.517-3.82-8.517-8.515s3.82-8.515 8.517-8.515c4.696 0 8.516 3.82 8.516 8.515 0 4.696-3.82 8.515-8.516 8.515zm18.91-31.952c1.04 0 1.886.847 1.886 1.886 0 1.04-.847 1.887-1.887 1.887a1.889 1.889 0 0 1-1.886-1.887c0-1.04.846-1.886 1.886-1.886zm-18.86 19.007c1.04 0 1.887.846 1.887 1.886s-.847 1.887-1.887 1.887a1.889 1.889 0 0 1-1.887-1.887c0-1.04.847-1.886 1.887-1.886zm3.478 8.42c-2.394.58-4.728.584-6.959.012a3.544 3.544 0 0 1 3.481-2.897 3.544 3.544 0 0 1 3.478 2.884z" fill="#FF5B77" stroke="#FF5B77" stroke-width=".3"></path></svg>