<svg xmlns="http://www.w3.org/2000/svg" width="50" height="50" viewBox="0 0 50 50" fill="none"><path d="M9.571 25.261a2.535 2.535 0 0 0 1.819-.765 2.653 2.653 0 0 0 .753-1.848 2.653 2.653 0 0 0 .753 1.848c.239.242.522.435.834.566a2.535 2.535 0 0 0 2.803-.566 2.621 2.621 0 0 0 .753-1.849 2.65 2.65 0 0 0 .753 1.849c.239.242.522.435.834.566a2.535 2.535 0 0 0 2.802-.566c.24-.243.429-.531.558-.848a2.65 2.65 0 0 0 .196-1 2.653 2.653 0 0 0 .753 1.848c.239.242.522.435.834.566a2.534 2.534 0 0 0 2.802-.566c.24-.243.428-.531.558-.848.129-.317.195-.657.195-1a2.65 2.65 0 0 0 .754 1.848c.238.242.522.435.834.566a2.535 2.535 0 0 0 2.802-.566c.239-.243.428-.531.558-.848a2.65 2.65 0 0 0 .195-1 2.653 2.653 0 0 0 .753 1.848c.24.242.523.435.835.566a2.534 2.534 0 0 0 2.802-.566 2.653 2.653 0 0 0 .753-1.848 2.653 2.653 0 0 0 .753 1.848c.24.242.523.435.834.566.313.132.647.2.985.2m-30.858 0a2.568 2.568 0 0 1-1.818-.766A2.652 2.652 0 0 1 7 22.648v-3.1l5.143-5.415h8.118M9.571 25.26V43H29.16m11.27-17.739c.337 0 .672-.067.984-.199.312-.13.595-.324.834-.566A2.62 2.62 0 0 0 43 22.647v-3.1l-5.339-5.414H29.16m11.27 11.128V43h-4.703M20.262 14.133V9.427h4.449m-4.449 4.706v4.593h4.449m-4.449-4.593h4.449m4.449 0V9.427H24.71m4.449 4.706v4.593H24.71m4.449-4.593H24.71m0 0V9.427m0 4.706v4.593m0-9.299L22.429 7m2.281 2.427L26.818 7m2.34 36V29.668h6.569V43m-6.568 0h6.568M13.73 29.668v8.739h10.98v-8.739H13.73z" stroke="#8D12E7" stroke-width="2" stroke-linecap="round" stroke-linejoin="round"></path></svg>