<svg xmlns="http://www.w3.org/2000/svg" width="51" height="51" viewBox="0 0 51 51" fill="none"><path d="M20.976 26.717c-.959 0-1.798-.14-2.503-.418a3.536 3.536 0 0 1-1.728-1.46 3.622 3.622 0 0 1-.268-3.21c.8-2.008 2.303-2.626 3.424-2.79a5.527 5.527 0 0 1 1.334-.027c.158-3.099 2.032-4.221 2.42-4.42l.088-.048c.902-.495 1.923-.583 2.957-.259 1.096.344 2.032 1.102 2.64 2.135 1.326 2.25 1.091 4.63-.677 6.883-1.57 2-3.96 3.297-6.554 3.557-.395.039-.773.06-1.133.057zm-1.275-1.537c.638.129 1.397.151 2.265.063 2.212-.223 4.246-1.326 5.578-3.025 1.397-1.778 1.588-3.552.572-5.279-.43-.727-1.083-1.259-1.842-1.497-.667-.208-1.287-.16-1.845.146l-.118.064h-.003c-.162.084-1.586.885-1.657 3.384v.005c0 .01-.01.275-.054.681-.162 1.482-.69 4.126-2.41 5.206l-.001-.002a3.068 3.068 0 0 1-.485.254zm-1.859-1.303c.628.174 1.149.124 1.586-.152.779-.49 1.383-1.774 1.663-3.5v.001a3.997 3.997 0 0 0-1.029.024c-1.066.172-1.83.813-2.268 1.904l.002.002c-.221.556-.204 1.18.046 1.723v-.002zM25.768 36.694c-.808 0-1.61-.1-2.393-.299-1.406-.356-2.512-.89-3.29-1.58a3.537 3.537 0 0 1-1.126-1.963 3.622 3.622 0 0 1 .844-3.11c1.44-1.612 3.063-1.68 4.173-1.452.437.092.861.238 1.264.432 1.21-2.859 3.355-3.272 3.787-3.326l.1-.014c1.015-.155 2.005.113 2.865.771.912.699 1.534 1.73 1.753 2.908.476 2.568-.558 4.723-2.991 6.235l-.002-.002a9.435 9.435 0 0 1-4.984 1.4zm-4.15-2.512c.555.339 1.262.618 2.108.834 2.154.547 4.441.207 6.275-.935 1.92-1.191 2.708-2.795 2.342-4.766-.155-.83-.587-1.553-1.218-2.036-.554-.424-1.153-.59-1.784-.495-.041.007-.087.012-.133.019h-.006c-.18.023-1.792.288-2.713 2.612v.006c-.004.01-.102.253-.283.622-.659 1.334-2.059 3.64-4.044 4.068-.179.04-.361.064-.544.071zm-1.3-1.859c.53.38 1.036.51 1.542.4.898-.193 1.905-1.195 2.76-2.72a4.1 4.1 0 0 0-.974-.329c-1.064-.205-1.998.138-2.782 1.015a2.195 2.195 0 0 0-.547 1.634zM40.525 11.513H9.761a.712.712 0 0 1-.712-.71v-3.09c0-.393.32-.713.712-.713h30.764c.19 0 .37.076.504.208a.719.719 0 0 1 .208.504v3.09c0 .393-.32.711-.712.711zM10.474 10.09h29.34V8.424h-29.34v1.666zM40.525 44H9.761a.713.713 0 0 1-.712-.712v-3.5c0-.393.32-.712.712-.712h30.764c.19 0 .37.076.504.208a.719.719 0 0 1 .208.504v3.5c0 .19-.076.37-.208.504a.719.719 0 0 1-.504.208zm-30.051-1.424h29.34V40.5h-29.34v2.076z" fill="#0B7AFC"></path><path d="M40.527 40.5a.713.713 0 0 1-.578-.298l-2.005-2.788a.71.71 0 0 1-.064-.724l.759-1.572V15.47l-.76-1.572a.71.71 0 0 1 .065-.724l2.005-2.788a.712.712 0 1 1 1.155.83l-1.758 2.446L39.99 15h.002a.702.702 0 0 1 .071.309v19.97c0 .108-.024.215-.071.312l-.646 1.336 1.758 2.445a.71.71 0 0 1-.579 1.128l.002-.002zM9.76 40.5a.71.71 0 0 1-.577-1.128l1.758-2.445-.645-1.336a.723.723 0 0 1-.071-.313v-19.97c0-.107.024-.213.071-.31l.645-1.338-1.758-2.446a.712.712 0 1 1 1.156-.83l2.005 2.788c.153.212.177.49.063.724l-.76 1.572.002 19.65.76 1.573h-.002a.707.707 0 0 1-.063.724l-2.005 2.788a.714.714 0 0 1-.58.297z" fill="#0B7AFC"></path><path d="M38.52 14.3h-7.404a.712.712 0 1 1 0-1.422h7.404a.712.712 0 1 1 0 1.423zM19.17 37.705h-7.404a.712.712 0 1 1 0-1.423h7.403a.712.712 0 1 1 0 1.423z" fill="#0B7AFC"></path></svg>