<svg xmlns="http://www.w3.org/2000/svg" width="51" height="51" viewBox="0 0 51 51" fill="none"><mask id="x3u6atc2sa" maskUnits="userSpaceOnUse" x="6.428" y="6.5" width="38" height="38" fill="#000"><path fill="#fff" d="M6.428 6.5h38v38h-38z"></path><path d="m42.836 10.542-4.845-3.02h-.059l-.039-.022h-3.237a.377.377 0 0 0-.277.125.447.447 0 0 0-.115.302c0 .793-.29 1.553-.804 2.114a2.638 2.638 0 0 1-1.942.875 2.638 2.638 0 0 1-1.942-.876 3.128 3.128 0 0 1-.804-2.113.447.447 0 0 0-.115-.302.377.377 0 0 0-.278-.125h-3.236l-.04.021h-.058L20.2 10.542c-.26.164-.454.43-.541.743-.088.313-.063.65.07.944l1.805 3.928c.097.212.247.39.433.514.185.125.398.19.616.19h2.266v8.968c0 .34.123.665.344.906.221.24.52.375.832.375H37.01c.312 0 .612-.135.833-.375.22-.24.344-.566.344-.906v-8.967h2.266c.217 0 .43-.066.616-.19.185-.125.335-.303.433-.515l1.805-3.928c.132-.294.157-.631.07-.944a1.279 1.279 0 0 0-.54-.743zm-20.253 5.466a.34.34 0 0 1-.205-.06.388.388 0 0 1-.138-.175l-1.805-3.928a.462.462 0 0 1-.026-.318.422.422 0 0 1 .183-.248l4.257-2.647v7.376h-2.266zm14.82 9.82a.447.447 0 0 1-.115.303.377.377 0 0 1-.278.125H26.026a.377.377 0 0 1-.278-.125.447.447 0 0 1-.115-.302V8.322h2.374a3.969 3.969 0 0 0 1.15 2.452c.648.635 1.489.986 2.36.986.873 0 1.714-.35 2.363-.986a3.969 3.969 0 0 0 1.15-2.452h2.373v17.507zM42.6 11.846l-1.805 3.928a.386.386 0 0 1-.139.175.34.34 0 0 1-.204.06h-2.266V8.632l4.257 2.647a.423.423 0 0 1 .183.248c.029.106.02.22-.026.318z"></path><path fill-rule="evenodd" clip-rule="evenodd" d="M18.154 15.006c.3.152.472.305.654.584l.134.205v.974c0 1.01-.017 1.195-.128 1.416-.105.212-.407.48-.67.598a1.212 1.212 0 0 0-.245.13c-.01.017.11.261.267.544.597 1.074.917 1.744 1.27 2.656.522 1.35.936 2.9 1.194 4.465.116.708.125 1.052.155 6.184.03 5.022.018 7.944-.033 8.368-.055.453-.35.997-.75 1.386a2.83 2.83 0 0 1-1.136.691c-.2.067-.266.072-1.238.096-1.335.034-5.72.033-7.034 0-1.153-.03-1.189-.035-1.646-.264a2.809 2.809 0 0 1-1.418-1.61c-.066-.197-.069-.253-.092-1.901-.03-2.112.018-11.75.061-12.254.101-1.177.627-3.353 1.158-4.791.414-1.12.822-1.985 1.412-2.993.287-.49.346-.636.258-.636-.083 0-.467-.206-.61-.326a2.024 2.024 0 0 1-.29-.338l-.146-.215v-2.189l.178-.259c.192-.281.306-.375.66-.546l.217-.105 7.564.002.254.128zm-7.834.884c-.11.16-.14.444-.127 1.178.013.655.034.755.182.831.12.062.992.08 3.736.08 2.745 0 3.617-.018 3.737-.08.144-.074.168-.179.181-.802.016-.73-.017-1.048-.126-1.206l-.08-.115H10.4l-.079.114zm.863 3.436c-1.008 1.57-1.907 3.784-2.382 5.866-.274 1.198-.342 1.698-.399 2.91-.052 1.117-.054 11.885-.002 12.515.042.512.095.8.174.947.08.149.58.602.752.68.308.14.251.138 4.9.15l4.387.01.187-.108c.414-.239.69-.492.883-.81.144-.234.145-.331.147-7.286.002-5.165-.006-6.546-.038-6.824-.262-2.304-.969-4.683-1.987-6.693a12.56 12.56 0 0 0-.82-1.444l-.23-.356h-5.288l-.284.443z"></path><path d="m38.4 32.076.036-1.38a.654.654 0 0 0-.199-.49.708.708 0 0 0-.501-.206H24.694c-.19 0-.37.074-.502.204a.653.653 0 0 0-.198.49l.238 9.146c.003 2.018 1.701 3.66 3.79 3.66h6.39c2.088 0 3.786-1.642 3.789-3.66l.028-1.051a.614.614 0 0 0 .174.027c1.922 0 3.486-1.512 3.486-3.37-.002-1.856-1.566-3.37-3.489-3.37zm-1.323 7.745v.02c0 1.422-1.197 2.578-2.668 2.578h-6.39c-1.472 0-2.669-1.156-2.669-2.579v-.021l-.227-8.734h12.181l-.227 8.736zm1.323-2.086a.68.68 0 0 0-.149.02l.12-4.598c.01 0 .02.003.029.003 1.306 0 2.366 1.026 2.366 2.286 0 1.263-1.06 2.29-2.366 2.29z"></path></mask><path d="m42.836 10.542-4.845-3.02h-.059l-.039-.022h-3.237a.377.377 0 0 0-.277.125.447.447 0 0 0-.115.302c0 .793-.29 1.553-.804 2.114a2.638 2.638 0 0 1-1.942.875 2.638 2.638 0 0 1-1.942-.876 3.128 3.128 0 0 1-.804-2.113.447.447 0 0 0-.115-.302.377.377 0 0 0-.278-.125h-3.236l-.04.021h-.058L20.2 10.542c-.26.164-.454.43-.541.743-.088.313-.063.65.07.944l1.805 3.928c.097.212.247.39.433.514.185.125.398.19.616.19h2.266v8.968c0 .34.123.665.344.906.221.24.52.375.832.375H37.01c.312 0 .612-.135.833-.375.22-.24.344-.566.344-.906v-8.967h2.266c.217 0 .43-.066.616-.19.185-.125.335-.303.433-.515l1.805-3.928c.132-.294.157-.631.07-.944a1.279 1.279 0 0 0-.54-.743zm-20.253 5.466a.34.34 0 0 1-.205-.06.388.388 0 0 1-.138-.175l-1.805-3.928a.462.462 0 0 1-.026-.318.422.422 0 0 1 .183-.248l4.257-2.647v7.376h-2.266zm14.82 9.82a.447.447 0 0 1-.115.303.377.377 0 0 1-.278.125H26.026a.377.377 0 0 1-.278-.125.447.447 0 0 1-.115-.302V8.322h2.374a3.969 3.969 0 0 0 1.15 2.452c.648.635 1.489.986 2.36.986.873 0 1.714-.35 2.363-.986a3.969 3.969 0 0 0 1.15-2.452h2.373v17.507zM42.6 11.846l-1.805 3.928a.386.386 0 0 1-.139.175.34.34 0 0 1-.204.06h-2.266V8.632l4.257 2.647a.423.423 0 0 1 .183.248c.029.106.02.22-.026.318z" fill="#00C036"></path><path fill-rule="evenodd" clip-rule="evenodd" d="M18.154 15.006c.3.152.472.305.654.584l.134.205v.974c0 1.01-.017 1.195-.128 1.416-.105.212-.407.48-.67.598a1.212 1.212 0 0 0-.245.13c-.01.017.11.261.267.544.597 1.074.917 1.744 1.27 2.656.522 1.35.936 2.9 1.194 4.465.116.708.125 1.052.155 6.184.03 5.022.018 7.944-.033 8.368-.055.453-.35.997-.75 1.386a2.83 2.83 0 0 1-1.136.691c-.2.067-.266.072-1.238.096-1.335.034-5.72.033-7.034 0-1.153-.03-1.189-.035-1.646-.264a2.809 2.809 0 0 1-1.418-1.61c-.066-.197-.069-.253-.092-1.901-.03-2.112.018-11.75.061-12.254.101-1.177.627-3.353 1.158-4.791.414-1.12.822-1.985 1.412-2.993.287-.49.346-.636.258-.636-.083 0-.467-.206-.61-.326a2.024 2.024 0 0 1-.29-.338l-.146-.215v-2.189l.178-.259c.192-.281.306-.375.66-.546l.217-.105 7.564.002.254.128zm-7.834.884c-.11.16-.14.444-.127 1.178.013.655.034.755.182.831.12.062.992.08 3.736.08 2.745 0 3.617-.018 3.737-.08.144-.074.168-.179.181-.802.016-.73-.017-1.048-.126-1.206l-.08-.115H10.4l-.079.114zm.863 3.436c-1.008 1.57-1.907 3.784-2.382 5.866-.274 1.198-.342 1.698-.399 2.91-.052 1.117-.054 11.885-.002 12.515.042.512.095.8.174.947.08.149.58.602.752.68.308.14.251.138 4.9.15l4.387.01.187-.108c.414-.239.69-.492.883-.81.144-.234.145-.331.147-7.286.002-5.165-.006-6.546-.038-6.824-.262-2.304-.969-4.683-1.987-6.693a12.56 12.56 0 0 0-.82-1.444l-.23-.356h-5.288l-.284.443z" fill="#00C036"></path><path d="m38.4 32.076.036-1.38a.654.654 0 0 0-.199-.49.708.708 0 0 0-.501-.206H24.694c-.19 0-.37.074-.502.204a.653.653 0 0 0-.198.49l.238 9.146c.003 2.018 1.701 3.66 3.79 3.66h6.39c2.088 0 3.786-1.642 3.789-3.66l.028-1.051a.614.614 0 0 0 .174.027c1.922 0 3.486-1.512 3.486-3.37-.002-1.856-1.566-3.37-3.489-3.37zm-1.323 7.745v.02c0 1.422-1.197 2.578-2.668 2.578h-6.39c-1.472 0-2.669-1.156-2.669-2.579v-.021l-.227-8.734h12.181l-.227 8.736zm1.323-2.086a.68.68 0 0 0-.149.02l.12-4.598c.01 0 .02.003.029.003 1.306 0 2.366 1.026 2.366 2.286 0 1.263-1.06 2.29-2.366 2.29z" fill="#00C036"></path><path d="m42.836 10.542-4.845-3.02h-.059l-.039-.022h-3.237a.377.377 0 0 0-.277.125.447.447 0 0 0-.115.302c0 .793-.29 1.553-.804 2.114a2.638 2.638 0 0 1-1.942.875 2.638 2.638 0 0 1-1.942-.876 3.128 3.128 0 0 1-.804-2.113.447.447 0 0 0-.115-.302.377.377 0 0 0-.278-.125h-3.236l-.04.021h-.058L20.2 10.542c-.26.164-.454.43-.541.743-.088.313-.063.65.07.944l1.805 3.928c.097.212.247.39.433.514.185.125.398.19.616.19h2.266v8.968c0 .34.123.665.344.906.221.24.52.375.832.375H37.01c.312 0 .612-.135.833-.375.22-.24.344-.566.344-.906v-8.967h2.266c.217 0 .43-.066.616-.19.185-.125.335-.303.433-.515l1.805-3.928c.132-.294.157-.631.07-.944a1.279 1.279 0 0 0-.54-.743zm-20.253 5.466a.34.34 0 0 1-.205-.06.388.388 0 0 1-.138-.175l-1.805-3.928a.462.462 0 0 1-.026-.318.422.422 0 0 1 .183-.248l4.257-2.647v7.376h-2.266zm14.82 9.82a.447.447 0 0 1-.115.303.377.377 0 0 1-.278.125H26.026a.377.377 0 0 1-.278-.125.447.447 0 0 1-.115-.302V8.322h2.374a3.969 3.969 0 0 0 1.15 2.452c.648.635 1.489.986 2.36.986.873 0 1.714-.35 2.363-.986a3.969 3.969 0 0 0 1.15-2.452h2.373v17.507zM42.6 11.846l-1.805 3.928a.386.386 0 0 1-.139.175.34.34 0 0 1-.204.06h-2.266V8.632l4.257 2.647a.423.423 0 0 1 .183.248c.029.106.02.22-.026.318z" stroke="#00C036" mask="url(#x3u6atc2sa)"></path><path clip-rule="evenodd" d="M18.154 15.006c.3.152.472.305.654.584l.134.205v.974c0 1.01-.017 1.195-.128 1.416-.105.212-.407.48-.67.598a1.212 1.212 0 0 0-.245.13c-.01.017.11.261.267.544.597 1.074.917 1.744 1.27 2.656.522 1.35.936 2.9 1.194 4.465.116.708.125 1.052.155 6.184.03 5.022.018 7.944-.033 8.368-.055.453-.35.997-.75 1.386a2.83 2.83 0 0 1-1.136.691c-.2.067-.266.072-1.238.096-1.335.034-5.72.033-7.034 0-1.153-.03-1.189-.035-1.646-.264a2.809 2.809 0 0 1-1.418-1.61c-.066-.197-.069-.253-.092-1.901-.03-2.112.018-11.75.061-12.254.101-1.177.627-3.353 1.158-4.791.414-1.12.822-1.985 1.412-2.993.287-.49.346-.636.258-.636-.083 0-.467-.206-.61-.326a2.024 2.024 0 0 1-.29-.338l-.146-.215v-2.189l.178-.259c.192-.281.306-.375.66-.546l.217-.105 7.564.002.254.128zm-7.834.884c-.11.16-.14.444-.127 1.178.013.655.034.755.182.831.12.062.992.08 3.736.08 2.745 0 3.617-.018 3.737-.08.144-.074.168-.179.181-.802.016-.73-.017-1.048-.126-1.206l-.08-.115H10.4l-.079.114zm.863 3.436c-1.008 1.57-1.907 3.784-2.382 5.866-.274 1.198-.342 1.698-.399 2.91-.052 1.117-.054 11.885-.002 12.515.042.512.095.8.174.947.08.149.58.602.752.68.308.14.251.138 4.9.15l4.387.01.187-.108c.414-.239.69-.492.883-.81.144-.234.145-.331.147-7.286.002-5.165-.006-6.546-.038-6.824-.262-2.304-.969-4.683-1.987-6.693a12.56 12.56 0 0 0-.82-1.444l-.23-.356h-5.288l-.284.443z" stroke="#00C036" mask="url(#x3u6atc2sa)"></path><path d="m38.4 32.076.036-1.38a.654.654 0 0 0-.199-.49.708.708 0 0 0-.501-.206H24.694c-.19 0-.37.074-.502.204a.653.653 0 0 0-.198.49l.238 9.146c.003 2.018 1.701 3.66 3.79 3.66h6.39c2.088 0 3.786-1.642 3.789-3.66l.028-1.051a.614.614 0 0 0 .174.027c1.922 0 3.486-1.512 3.486-3.37-.002-1.856-1.566-3.37-3.489-3.37zm-1.323 7.745v.02c0 1.422-1.197 2.578-2.668 2.578h-6.39c-1.472 0-2.669-1.156-2.669-2.579v-.021l-.227-8.734h12.181l-.227 8.736zm1.323-2.086a.68.68 0 0 0-.149.02l.12-4.598c.01 0 .02.003.029.003 1.306 0 2.366 1.026 2.366 2.286 0 1.263-1.06 2.29-2.366 2.29z" stroke="#00C036" mask="url(#x3u6atc2sa)"></path></svg>