<svg xmlns="http://www.w3.org/2000/svg" viewBox="0 0 200 180" fill="none" aria-hidden="true">
  <ellipse cx="100" cy="168" rx="62" ry="8" fill="#000" fill-opacity=".06"/>
  <rect x="28" y="52" width="144" height="96" rx="14" fill="#22C55E"/>
  <rect x="28" y="52" width="144" height="32" rx="14" fill="#16A34A"/>
  <rect x="28" y="68" width="144" height="16" fill="#16A34A"/>
  <rect x="36" y="92" width="128" height="48" rx="10" fill="#DCFCE7"/>
  <circle cx="58" cy="116" r="18" fill="#F59E0B"/>
  <circle cx="58" cy="116" r="12" fill="#FBBF24"/>
  <text x="58" y="121" text-anchor="middle" font-family="Arial, sans-serif" font-size="11" font-weight="800" fill="#92400E">PTS</text>
  <circle cx="100" cy="116" r="18" fill="#8D12E7"/>
  <text x="100" y="121" text-anchor="middle" font-family="Arial, sans-serif" font-size="14" font-weight="800" fill="#fff">$</text>
  <circle cx="142" cy="116" r="18" fill="#EF4444"/>
  <path d="M142 108v16M134 116h16" stroke="#fff" stroke-width="3" stroke-linecap="round"/>
  <rect x="118" y="38" width="54" height="34" rx="8" fill="#F97316"/>
  <rect x="124" y="44" width="42" height="22" rx="5" fill="#FDBA74"/>
  <rect x="132" y="50" width="26" height="4" rx="2" fill="#fff" fill-opacity=".85"/>
  <rect x="132" y="58" width="18" height="3" rx="1.5" fill="#fff" fill-opacity=".55"/>
  <path d="M44 78h24" stroke="#fff" stroke-width="4" stroke-linecap="round"/>
  <path d="M44 78c0-10 8-18 18-18h8" stroke="#fff" stroke-width="4" stroke-linecap="round"/>
</svg>
